<svg width="375" height="100" viewBox="0 0 375 100" fill="none" xmlns="http://www.w3.org/2000/svg">
<path fill-rule="evenodd" clip-rule="evenodd" d="M21.4006 18.3149C18.4808 20.8168 16.0097 23.8162 14.1225 27.1794C17.3212 27.4623 20.6032 27.5578 23.9174 27.4525C23.329 24.336 22.4971 21.2771 21.4006 18.3149ZM12.6937 30.05C10.9604 34.0144 10 38.3855 10 42.9782C10 52.2121 13.8824 60.5504 20.1229 66.4877C22.6372 59.7142 24.3143 52.2783 24.8443 44.7139C25.1789 39.9398 25.0556 35.1361 24.4043 30.433C20.4406 30.5763 16.5102 30.4427 12.6937 30.05ZM23.3108 69.1599C23.0508 68.9684 22.7938 68.7733 22.5398 68.5745C25.3824 61.2315 27.2618 53.1331 27.837 44.9236C28.1783 40.0534 28.0614 35.1234 27.4081 30.2715C30.6838 30.0375 33.9682 29.6124 37.2163 28.9865C45.5802 27.3746 53.767 24.4166 60.9788 19.9108C58.4432 27.9549 57.6702 36.5282 58.2585 44.9236C58.4864 48.1769 58.9192 51.4128 59.5355 54.5912C54.6161 55.2226 49.7595 56.3876 45.0808 57.975C37.1967 60.65 29.7588 64.5426 23.3108 69.1599ZM25.9969 70.9436C30.9749 73.9105 36.8093 75.6175 43.0474 75.6175C50.7953 75.6175 57.9205 72.9841 63.5555 68.5741C62.1889 65.044 61.045 61.3392 60.1616 57.5315C55.3876 58.1274 50.6513 59.2543 46.0625 60.8112C38.8045 63.2738 31.9691 66.7955 25.9969 70.9436ZM65.9723 66.4872C68.7513 63.8431 71.0626 60.7229 72.7717 57.2596C69.5868 56.981 66.3756 56.9804 63.171 57.2273C63.9259 60.4115 64.8684 63.5132 65.9723 66.4872ZM74.0253 54.3722C75.3634 50.8249 76.0947 46.9859 76.0947 42.9782C76.0947 33.1296 71.6783 24.2998 64.6947 18.3153C61.6131 26.6405 60.6216 35.7299 61.2511 44.7139C61.477 47.9378 61.9113 51.1383 62.5299 54.2742C66.3559 53.9561 70.2055 53.9715 74.0253 54.3722ZM61.5559 15.9341C54.2115 21.0236 45.5801 24.3208 36.6307 26.0455C33.4154 26.6651 30.1691 27.0795 26.9385 27.3011C26.2608 23.5783 25.2528 19.9193 23.8781 16.3877C29.2842 12.5792 35.9009 10.3388 43.0474 10.3388C49.9053 10.3388 56.2754 12.4019 61.5559 15.9341Z" fill="#BDE023"/>
<path d="M117.224 74.9541C114.499 74.9541 112.208 74.5566 110.35 73.7615C108.554 72.9052 107.099 71.7125 105.984 70.1835C104.869 68.6544 104.064 66.8502 103.569 64.7706C103.135 62.63 102.919 60.2752 102.919 57.7064V10H118.896V58.2569C118.896 59.8471 119.174 60.9174 119.732 61.4679C120.351 62.0183 120.939 62.2936 121.497 62.2936C121.806 62.2936 122.054 62.2936 122.24 62.2936C122.488 62.2936 122.797 62.2324 123.169 62.1101L125.026 73.6697C124.16 74.0367 123.076 74.3425 121.775 74.5872C120.537 74.8318 119.02 74.9541 117.224 74.9541Z" fill="#293231"/>
<path d="M152.137 74.9541C148.731 74.9541 145.572 74.4343 142.662 73.3945C139.751 72.2936 137.212 70.7339 135.045 68.7156C132.939 66.6361 131.267 64.0979 130.029 61.1009C128.79 58.104 128.171 54.7095 128.171 50.9174C128.171 47.1865 128.79 43.8532 130.029 40.9174C131.329 37.9205 133.001 35.3823 135.045 33.3028C137.15 31.2232 139.534 29.633 142.197 28.5321C144.86 27.4312 147.616 26.8807 150.465 26.8807C153.871 26.8807 156.843 27.4618 159.382 28.6239C161.921 29.7859 164.026 31.3761 165.698 33.3945C167.371 35.4128 168.609 37.7676 169.414 40.4587C170.281 43.1498 170.715 46.0245 170.715 49.0826C170.715 50.4893 170.622 51.8043 170.436 53.0275C170.312 54.2508 170.188 55.1376 170.064 55.6881H143.591C144.334 58.4404 145.665 60.367 147.585 61.4679C149.505 62.5076 151.765 63.0275 154.366 63.0275C155.976 63.0275 157.524 62.8135 159.01 62.3853C160.559 61.896 162.169 61.1927 163.841 60.2752L169.043 69.633C166.504 71.4067 163.686 72.7523 160.59 73.6697C157.555 74.526 154.737 74.9541 152.137 74.9541ZM143.405 45.4128H157.153C157.153 43.6391 156.688 42.1101 155.759 40.8257C154.892 39.4801 153.251 38.8073 150.836 38.8073C149.04 38.8073 147.461 39.3272 146.099 40.367C144.798 41.4067 143.9 43.0887 143.405 45.4128Z" fill="#293231"/>
<path d="M190.649 74.9541C188.481 74.9541 186.531 74.5872 184.797 73.8532C183.063 73.0581 181.577 72.0183 180.338 70.7339C179.161 69.4495 178.264 67.9511 177.644 66.2385C177.025 64.526 176.715 62.7217 176.715 60.8257C176.715 56.055 178.697 52.3242 182.66 49.633C186.624 46.8807 193.064 45.0459 201.981 44.1284C201.61 40.948 199.442 39.3578 195.479 39.3578C193.807 39.3578 192.042 39.6942 190.184 40.367C188.327 40.9786 186.19 41.9266 183.775 43.211L178.202 32.9358C181.484 30.9786 184.797 29.4801 188.141 28.4404C191.485 27.4006 194.984 26.8807 198.637 26.8807C204.644 26.8807 209.351 28.5933 212.757 32.0183C216.225 35.3823 217.958 40.8257 217.958 48.3486V73.8532H204.954L203.839 69.4495H203.468C201.61 71.1009 199.628 72.4465 197.523 73.4862C195.479 74.4648 193.188 74.9541 190.649 74.9541ZM196.222 62.844C197.523 62.844 198.575 62.5688 199.381 62.0183C200.247 61.4067 201.114 60.6422 201.981 59.7248V53.4862C198.142 54.0367 195.51 54.8624 194.086 55.9633C192.661 57.0642 191.949 58.2569 191.949 59.5413C191.949 61.7431 193.374 62.844 196.222 62.844Z" fill="#293231"/>
<path d="M228.374 90V27.9817H241.379L242.494 32.2018H242.865C244.599 30.6116 246.55 29.3272 248.717 28.3486C250.885 27.37 253.145 26.8807 255.498 26.8807C258.223 26.8807 260.7 27.4312 262.93 28.5321C265.159 29.633 267.048 31.1927 268.596 33.211C270.206 35.2294 271.413 37.6758 272.219 40.5505C273.086 43.4251 273.519 46.6361 273.519 50.1835C273.519 54.159 272.962 57.6758 271.847 60.7339C270.794 63.792 269.37 66.3914 267.574 68.5321C265.778 70.6116 263.704 72.2018 261.35 73.3028C259.059 74.4037 256.675 74.9541 254.198 74.9541C250.358 74.9541 246.891 73.4251 243.794 70.367L244.352 77.3395V90H228.374ZM250.297 62.1101C252.154 62.1101 253.764 61.2538 255.127 59.5413C256.489 57.8287 257.17 54.7706 257.17 50.367C257.17 46.5749 256.613 43.8532 255.498 42.2018C254.446 40.5505 252.836 39.7248 250.668 39.7248C249.43 39.7248 248.315 39.9694 247.324 40.4587C246.395 40.948 245.404 41.8043 244.352 43.0275V59.9083C245.28 60.7645 246.24 61.3456 247.231 61.6514C248.222 61.9572 249.244 62.1101 250.297 62.1101Z" fill="#293231"/>
<path d="M303.808 74.9541C300.402 74.9541 297.244 74.4343 294.334 73.3945C291.423 72.2936 288.884 70.7339 286.717 68.7156C284.611 66.6361 282.939 64.0979 281.701 61.1009C280.462 58.104 279.843 54.7095 279.843 50.9174C279.843 47.1865 280.462 43.8532 281.701 40.9174C283.001 37.9205 284.673 35.3823 286.717 33.3028C288.822 31.2232 291.206 29.633 293.869 28.5321C296.532 27.4312 299.288 26.8807 302.136 26.8807C305.542 26.8807 308.515 27.4618 311.054 28.6239C313.593 29.7859 315.698 31.3761 317.37 33.3945C319.042 35.4128 320.281 37.7676 321.086 40.4587C321.953 43.1498 322.386 46.0245 322.386 49.0826C322.386 50.4893 322.293 51.8043 322.108 53.0275C321.984 54.2508 321.86 55.1376 321.736 55.6881H295.262C296.006 58.4404 297.337 60.367 299.257 61.4679C301.176 62.5076 303.437 63.0275 306.038 63.0275C307.648 63.0275 309.196 62.8135 310.682 62.3853C312.23 61.896 313.84 61.1927 315.512 60.2752L320.714 69.633C318.175 71.4067 315.358 72.7523 312.261 73.6697C309.227 74.526 306.409 74.9541 303.808 74.9541ZM295.077 45.4128H308.824C308.824 43.6391 308.36 42.1101 307.431 40.8257C306.564 39.4801 304.923 38.8073 302.508 38.8073C300.712 38.8073 299.133 39.3272 297.771 40.367C296.47 41.4067 295.572 43.0887 295.077 45.4128Z" fill="#293231"/>
<path d="M331.152 73.8532V27.9817H344.157L345.271 35.8716H345.643C347.377 32.7523 349.42 30.4893 351.774 29.0826C354.189 27.6147 356.542 26.8807 358.833 26.8807C360.258 26.8807 361.403 26.9725 362.27 27.156C363.137 27.2783 363.911 27.4924 364.592 27.7982L361.992 41.3761C361.125 41.1927 360.289 41.0398 359.484 40.9174C358.74 40.7339 357.842 40.6422 356.79 40.6422C355.118 40.6422 353.353 41.2232 351.495 42.3853C349.699 43.4862 348.244 45.474 347.129 48.3486V73.8532H331.152Z" fill="#293231"/>
</svg>
